<?xml version="1.0" encoding="iso-8859-1"?>
<!-- Generator: Adobe Illustrator 16.0.0, SVG Export Plug-In . SVG Version: 6.00 Build 0)  -->
<!DOCTYPE svg PUBLIC "-//W3C//DTD SVG 1.1//EN" "http://www.w3.org/Graphics/SVG/1.1/DTD/svg11.dtd">
<svg version="1.1" id="Capa_1" xmlns="http://www.w3.org/2000/svg" xmlns:xlink="http://www.w3.org/1999/xlink" x="0px" y="0px"
	 width="380.722px" height="380.721px" viewBox="0 0 380.722 380.721" style="enable-background:new 0 0 380.722 380.721;"
	 xml:space="preserve">
<g>
	<path d="M190.36,0C108.524,0,46.208,157.666,46.208,236.568c0,79.483,64.675,144.153,144.152,144.153
		c79.472,0,144.153-64.67,144.153-144.153C334.514,157.666,272.191,0,190.36,0z M190.36,357.065
		c-66.453,0-120.515-54.05-120.515-120.497c0-7.669,0.75-16.358,2.132-25.642l6.542-2.859l12.292-5.67l13.954-6.947l26.032,27.42
		l7.343,7.715l5.484-7.889l41.735-59.889l35.744,33.863l-33.781-41.333l-2.353-2.893l-2.794,3.085l-44.343,48.961l-22-30.011
		l-4.474-6.128l-8.58,2.986l-21.547,7.5l-2.853,0.97C96.534,109.222,141.521,23.65,190.36,23.65
		c63.485,0,120.509,144.618,120.509,212.918C310.869,303.015,256.808,357.065,190.36,357.065z"/>
</g>
<g>
</g>
<g>
</g>
<g>
</g>
<g>
</g>
<g>
</g>
<g>
</g>
<g>
</g>
<g>
</g>
<g>
</g>
<g>
</g>
<g>
</g>
<g>
</g>
<g>
</g>
<g>
</g>
<g>
</g>
</svg>
